<?xml version="1.0" encoding="utf-8"?>
<!-- Generator: Adobe Illustrator 25.2.1, SVG Export Plug-In . SVG Version: 6.00 Build 0)  -->
<svg version="1.1" xmlns="http://www.w3.org/2000/svg" xmlns:xlink="http://www.w3.org/1999/xlink" x="0px" y="0px"
	 viewBox="0 0 500 500" style="enable-background:new 0 0 500 500;" xml:space="preserve">
<style type="text/css">
	.st0{stroke:#29006A;stroke-miterlimit:10;}
	.st1{fill:#35CEFF;stroke:#29006A;stroke-miterlimit:10;}
	.st2{fill:#FFFFFF;}
	.st3{fill:#FE6C4A;stroke:#FE6C4A;stroke-miterlimit:10;}
	.st4{font-family:'Helvetica-Light';}
	.st5{font-size:17.6883px;}
	.st6{fill:#FE64D4;}
	.st7{font-size:10px;}
	.st8{fill:#2E3192;}
	.st9{font-size:11px;}
	.st10{fill:#FFFFFF;stroke:#FE6C4A;stroke-miterlimit:10;}
	.st11{fill:#ED1C24;}
	.st12{fill:#FCEE21;}
	.st13{fill:#FFFFFF;stroke:#000000;stroke-miterlimit:10;}
	.st14{fill:url(#SVGID_1_);}
	.st15{fill:url(#SVGID_2_);stroke:#29006A;stroke-miterlimit:10;}
	.st16{fill:url(#SVGID_3_);stroke:#29006A;stroke-miterlimit:10;}
	.st17{fill:url(#SVGID_4_);stroke:#29006A;stroke-miterlimit:10;}
	.st18{fill:#FF9F74;stroke:#BF5600;stroke-miterlimit:10;}
	.st19{fill:#BF5600;stroke:#BF5600;stroke-miterlimit:10;}
	.st20{fill:#4A1700;stroke:#BF5600;stroke-miterlimit:10;}
	.st21{fill:none;stroke:#BF5600;stroke-miterlimit:10;}
</style>
<g id="Layer_1">
	<g>
		
			<image style="overflow:visible;" width="1631" height="480" xlink:href="41D83B584B39C177.png"  transform="matrix(0.24 0 0 0.24 80.4 401.28)">
		</image>
	</g>
	<path class="st0" d="M389.2,426.8l-193.3,42c-6.3,1.4-12.6-2.6-14-9l-81-372.6c-1.4-6.3,2.6-12.6,9-14l193.3-42
		c6.3-1.4,12.6,2.6,14,9l81,372.6C399.6,419.1,395.5,425.4,389.2,426.8z"/>
	<path class="st1" d="M384.2,422.8L199.2,463c-6.3,1.4-12.6-2.6-14-9L106.4,91.4c-1.4-6.3,2.6-12.6,9-14l54-11.7l70.7-15.4
		l60.3-13.1c6.3-1.4,12.6,2.6,14,9l78.8,362.6C394.6,415.2,390.6,421.4,384.2,422.8z"/>
	<polygon class="st0" points="181.4,72.3 169.4,65.7 240.1,50.3 234.4,60.8 	"/>
	<g id="Layer_3">
		
			<rect x="168.3" y="243.1" transform="matrix(0.9772 -0.2124 0.2124 0.9772 -64.2808 64.213)" class="st2" width="197" height="176.5"/>
	</g>
	<text transform="matrix(0.8823 -0.1917 0.2124 0.9772 160.6996 282.8236)" class="st3 st4 st5">MICK</text>
	<text transform="matrix(0.9103 -0.1978 0.2124 0.9772 163.4871 295.6505)" class="st6 st4 st7">Boston, MA</text>
	<text transform="matrix(0.9452 -0.2054 0.2124 0.9772 167.4707 313.9803)"><tspan x="0" y="0" class="st8 st4 st9">Hello, Im Mick. I love watching bird</tspan><tspan x="0" y="13.2" class="st8 st4 st9">videos, dropping things on the floor</tspan><tspan x="0" y="26.4" class="st8 st4 st9">and playing with my owner, Gia.</tspan><tspan x="0" y="52.8" class="st8 st4 st9">Press the heart if you wanna be </tspan><tspan x="0" y="66" class="st8 st4 st9">friends! </tspan></text>
	<path class="st2" d="M315.8,428.7L254.6,442c-1.2,0.3-2.5-0.5-2.7-1.8l0,0c-0.3-1.2,0.5-2.5,1.8-2.7l61.2-13.3
		c1.2-0.3,2.5,0.5,2.7,1.8l0,0C317.9,427.2,317.1,428.4,315.8,428.7z"/>
	<circle class="st10" cx="226.3" cy="401.6" r="21.7"/>
	<circle class="st10" cx="276.1" cy="390.8" r="21.7"/>
	<circle class="st10" cx="325.9" cy="380" r="21.7"/>
	<path class="st6" d="M225.3,398.4c-4-8.6-10.5-10.1-13-4.4c-2.9,6.7,3.9,14.8,16.8,21.9c16.2-19.5,9.2-25.4,7-26.4
		C230.5,386.9,227.7,391.8,225.3,398.4z"/>
	<path class="st11" d="M278.8,390.5l5.9-9.2c0.6-0.9,0.3-2-0.6-2.6c-0.9-0.6-2-0.3-2.6,0.6l-5.9,9.2l-9.2-5.9
		c-0.9-0.6-2-0.3-2.6,0.6c-0.6,0.9-0.3,2,0.6,2.6l9.2,5.9l-5.9,9.2c-0.6,0.9-0.3,2,0.6,2.6c0.9,0.6,2,0.3,2.6-0.6l5.9-9.2l9.2,5.9
		c0.9,0.6,2,0.3,2.6-0.6c0.6-0.9,0.3-2-0.6-2.6L278.8,390.5z"/>
	<polygon class="st12" points="335.4,387.5 327,385.1 320.3,390.7 320,382 312.6,377.4 320.8,374.3 322.9,365.9 328.3,372.7 
		337,372.1 332.2,379.4 	"/>
	<path class="st13" d="M209.9,182.4"/>
	
		<linearGradient id="SVGID_1_" gradientUnits="userSpaceOnUse" x1="205.969" y1="74.1334" x2="245.6125" y2="231.6361" gradientTransform="matrix(1.235 -5.107785e-02 -5.107785e-02 1.0111 -43.5049 9.4543)">
		<stop  offset="1.719531e-03" style="stop-color:#FFFFFF"/>
		<stop  offset="1" style="stop-color:#FFFFFF"/>
	</linearGradient>
	<path class="st14" d="M335.5,218.4l-178.1,38.7c-3.4,0.7-6.7-1.4-7.4-4.8l-30.5-140.5c-0.7-3.4,1.4-6.7,4.8-7.4l178.1-38.7
		c3.4-0.7,6.7,1.4,7.4,4.8L340.3,211C341,214.4,338.9,217.7,335.5,218.4z"/>
	<linearGradient id="SVGID_2_" gradientUnits="userSpaceOnUse" x1="144.2817" y1="161.4224" x2="144.2817" y2="161.4224">
		<stop  offset="1.719531e-03" style="stop-color:#FFFFFF"/>
		<stop  offset="1" style="stop-color:#FFFFFF"/>
	</linearGradient>
	<path class="st15" d="M144.3,161.4"/>
	<linearGradient id="SVGID_3_" gradientUnits="userSpaceOnUse" x1="165.9797" y1="136.4995" x2="165.9797" y2="136.4995">
		<stop  offset="1.719531e-03" style="stop-color:#FFFFFF"/>
		<stop  offset="1" style="stop-color:#FFFFFF"/>
	</linearGradient>
	<path class="st16" d="M166,136.5"/>
	<linearGradient id="SVGID_4_" gradientUnits="userSpaceOnUse" x1="243.3758" y1="235.2203" x2="243.3758" y2="235.2203">
		<stop  offset="1.719531e-03" style="stop-color:#FF9F74"/>
		<stop  offset="1" style="stop-color:#FF9F74"/>
	</linearGradient>
	<path class="st17" d="M243.4,235.2"/>
</g>
<g id="Layer_4">
</g>
<g id="Cat">
	<path class="st18" d="M194,115.3l4.2,28.8c0,0,9.4-12.6,16.3-14.7L194,115.3z"/>
	<path class="st18" d="M229.9,126l14.8-24.1l7.2,31.1C251.9,133,245.8,127.9,229.9,126z"/>
	<path class="st18" d="M201.8,247.1c0,0-15.1-64.8-4-102.9c2.3-7.8,5.7-14.6,10.6-19.3c3-3,6.6-5.2,10.8-6.5
		c44.3-13.5,79.4,107.7,79.4,107.7L201.8,247.1z"/>
	<ellipse transform="matrix(0.9772 -0.2124 0.2124 0.9772 -27.3249 49.5163)" class="st19" cx="216.9" cy="152" rx="3.4" ry="5.6"/>
	
		<ellipse transform="matrix(0.9772 -0.2124 0.2124 0.9772 -25.8058 53.2146)" class="st19" cx="234.8" cy="146.7" rx="3.1" ry="5.5"/>
	<path class="st18" d="M228.5,213l8.5,26.4l-13.2,2.9c0,0-5.6-8.8-6.2-28.5"/>
	<path class="st18" d="M252.3,208.2l4.1,27.1l12.4-2.7c0,0,4.7-1.6-4.1-29"/>
	<polygon class="st19" points="229.9,162.5 225.6,159.8 231.1,157.3 	"/>
	<line class="st20" x1="234.8" y1="172.9" x2="229.9" y2="162.5"/>
	<line class="st21" x1="224.3" y1="170.8" x2="210.9" y2="184.2"/>
	<line class="st21" x1="221.6" y1="167.7" x2="204.2" y2="171.8"/>
	<line class="st21" x1="238.8" y1="159.9" x2="254.4" y2="150.9"/>
	<line class="st21" x1="240.9" y1="163.6" x2="257" y2="164.4"/>
</g>
</svg>
