<?xml version="1.0" encoding="utf-8"?>
<!-- Generator: Adobe Illustrator 25.2.1, SVG Export Plug-In . SVG Version: 6.00 Build 0)  -->
<svg version="1.1" id="Layer_1" xmlns="http://www.w3.org/2000/svg" xmlns:xlink="http://www.w3.org/1999/xlink" x="0px" y="0px"
	 viewBox="0 0 64 64" style="enable-background:new 0 0 64 64;" xml:space="preserve">
<style type="text/css">
	.st0{fill:#29ABE2;stroke:#000000;stroke-width:0.75;stroke-miterlimit:10;}
	.st1{clip-path:url(#SVGID_2_);fill:#29ABE2;}
	.st2{fill:#FE6C4B;stroke:#000000;stroke-miterlimit:10;}
	.st3{stroke:#000000;stroke-width:0.5;stroke-miterlimit:10;}
</style>
<g id="Layer_1_1_">
	<path class="st0" d="M33.3,59c0,0-10.9-9.7-18.5-20.7c-0.5-0.7-0.9-1.3-1.3-2C8.1,28,5,19.3,10.3,13.8c3.5-3.7,6.8-4.5,9.8-3.6
		c7.8,2.2,13.2,15.3,13.2,15.3s8.9-24.3,22-11.7C68.4,26.3,33.3,59,33.3,59z"/>
	<g>
		<g>
			<defs>
				<path id="SVGID_1_" d="M33.3,59c0,0-10.9-9.7-18.5-20.7c-0.5-0.7-0.9-1.3-1.3-2C8.1,28,5,19.3,10.3,13.8
					c3.5-3.7,6.8-4.5,9.8-3.6c7.8,2.2,13.2,15.3,13.2,15.3s8.9-24.3,22-11.7C68.4,26.3,33.3,59,33.3,59z"/>
			</defs>
			<clipPath id="SVGID_2_">
				<use xlink:href="#SVGID_1_"  style="overflow:visible;"/>
			</clipPath>
			<path class="st1" d="M31.6,16.5c0.1,1,0.3,1.9,0.4,2.9c0.7-2.3,3-3.3,5.2-3.2c0-0.8,0-1.7,0-2.5c0-1.4,0.4-2.4,1.1-3.2l-7.8-0.2
				C31,12.4,31.3,14.4,31.6,16.5z"/>
		</g>
	</g>
</g>
<g id="Layer_2_1_">
	<path class="st2" d="M22.6,11.4c-1.6,2.3-3.5,5.3-4.9,9c-2.8,7.1-3.1,13.5-2.9,17.5c2.1,2.8,4.3,5.8,6.9,8.8
		c4,4.7,7.9,8.8,11.7,12.3c2.4-2.3,4.9-4.9,7.4-7.7c4.1-4.6,7.5-9.1,10.5-13.3c0-2.8-0.3-5.9-1-9.4c-1.4-7.3-4.1-13-6.4-17
		c-1.7,1.2-4.3,3.1-6.5,6.2c-2.1,2.9-3.3,5.7-3.9,7.6c-0.9-2.3-2.5-5.3-5-8.5C26.3,14.5,24.3,12.7,22.6,11.4z"/>
</g>
<g id="Layer_3">
	<ellipse cx="26" cy="31.5" rx="1.9" ry="3"/>
	<ellipse cx="38.8" cy="31.5" rx="1.9" ry="3"/>
	<path d="M31.1,38.9l-1.9-2.3c0,0,3-1,4.2,0L31.1,38.9z"/>
	<path class="st3" d="M31.3,43.6L31.1,38L31.3,43.6z"/>
	<path class="st3" d="M15.3,45.1L26,40.4L15.3,45.1z"/>
	<path class="st3" d="M19.6,50.9l7.6-8.8L19.6,50.9z"/>
	<path class="st3" d="M44.3,51.7l-9.2-9.2L44.3,51.7z"/>
	<path class="st3" d="M48.4,45l-12.2-4.2L48.4,45z"/>
</g>
</svg>
