<?xml version="1.0" encoding="utf-8"?>
<!-- Generator: Adobe Illustrator 25.2.1, SVG Export Plug-In . SVG Version: 6.00 Build 0)  -->
<svg version="1.1" xmlns="http://www.w3.org/2000/svg" xmlns:xlink="http://www.w3.org/1999/xlink" x="0px" y="0px"
	 viewBox="0 0 1920 1080" style="enable-background:new 0 0 1920 1080;" xml:space="preserve">
<style type="text/css">
	.st0{fill:#AAE8FF;}
	.st1{fill:#FFFFFF;}
	.st2{fill:#FF931E;}
	.st3{stroke:#000000;stroke-width:5;stroke-miterlimit:10;}
	.st4{fill:#FFFFFF;stroke:#FFFFFF;stroke-miterlimit:10;}
	.st5{stroke:#FFFFFF;stroke-miterlimit:10;}
	.st6{fill:none;stroke:#FFFFFF;stroke-miterlimit:10;}
	.st7{fill:#FF7BAC;}
	.st8{fill:none;stroke:#F7931E;stroke-width:3;stroke-miterlimit:10;}
	.st9{stroke:#000000;stroke-width:0.75;stroke-miterlimit:10;}
	.st10{fill:none;stroke:#000000;stroke-width:0.75;stroke-miterlimit:10;}
	.st11{fill:#FFFFFF;stroke:#000000;stroke-miterlimit:10;}
	.st12{fill:#ED1C24;}
	.st13{fill:#FF1D25;}
	.st14{stroke:#FFFFFF;stroke-width:2;stroke-miterlimit:10;}
	.st15{stroke:#000000;stroke-miterlimit:10;}
</style>
<g id="Layer_2">
	<path class="st0" d="M394.8,139.8L231.4,258.5C128.8,333,85.8,465.2,125,585.9l62.4,192c39.2,120.7,151.6,202.4,278.5,202.4h201.9
		c126.9,0,239.3-81.7,278.5-202.4l62.4-192C1048,465.2,1005,333,902.4,258.5L739,139.8C636.4,65.2,497.4,65.2,394.8,139.8z"/>
	<circle class="st1" cx="231.8" cy="463" r="37.3"/>
	<ellipse class="st1" cx="293.5" cy="452.2" rx="61.8" ry="48.2"/>
	<ellipse class="st1" cx="362.6" cy="463" rx="49.3" ry="38.8"/>
	<ellipse class="st1" cx="439.1" cy="827.6" rx="51.5" ry="49.9"/>
	<ellipse class="st1" cx="524.5" cy="813.1" rx="85.3" ry="64.5"/>
	<ellipse class="st1" cx="619.9" cy="827.6" rx="68.1" ry="51.9"/>
</g>
<g id="Layer_1">
	<path class="st2" d="M432.9,558.9c149.8-4.1,299.5-8.1,449.3-12.2c-45.7,55.5-91.3,111-137,166.5H251.6
		C312.1,661.8,372.5,610.3,432.9,558.9z"/>
	<path class="st2" d="M818,792.8"/>
	<path d="M425.6,464.8c1.4-0.7,3.6-1.5,6.3-1.8c1.5-0.2,4.2-0.3,5.1,0.1c5,2.2-14.5,34.9-12,68c0,0,2.2,30.1,36.6,79.3
		c1.5,2.2,3.1,4.3,3.1,4.3c1.3,1.7,2.4,3.1,3.2,4.1l0,0c0,0,14.5,21.8,37.8,29.5c4,1.3,9.1,5.4,8.6,6.6c-0.7,1.7-14.8-1.5-25.6-6.1
		c-24.3-10.1-38.4-29-48.3-42.7c-6.5-8.9-15-22.5-22-40.7c-3.7-11.2-8.4-30.9-5.9-55.3C414.6,490.1,420.8,474.5,425.6,464.8z"/>
	<path d="M523.5,533.3c0.8,4.2,1.4,10.5-1.1,17c-3.4,8.6-10,11.5-19.3,21c-1.8,1.9-9.2,10-14.6,19c-17.8,29.5-6,56,0,62.2
		c6,6.2,6.7,8.3,17.8,10.9c11,2.6,83.7,0,83.7,0s6.2-2.1,8.7-12.4c7-27.8-6.5-56.1-8.7-59.6c-5.4-8.5-13.5-17.5-15.6-19.8
		c-10.1-11.1-15.4-14.3-17.2-22.5c-0.7-3.2-0.1-3.7,1-17.5c1.1-14.2,1.6-21.3-0.1-22.6C554.9,506.8,546.3,510.7,523.5,533.3z"/>
	<path class="st3" d="M446.6,501.8c10.7-9.7,26.3-20.9,47.1-27.8c66-22,126.3,18.5,135.3,24.8c-3.4,3-8.4,7-14.8,11.2
		c-35.9,23.6-73.2,23.4-81.5,23.2C487.3,532.2,456.3,509.6,446.6,501.8z"/>
	<g>
		<path class="st4" d="M601.1,500.1c0,0-8.4,5.7-20.1,7c-1.3,0.2-2.6,0.2-4,0.3c-7.4,0.2-15.7-1.6-24.1-7.3c0,0,9.5-9.1,24.1-8.8
			c1.5,0,3.1,0.2,4.8,0.4C587.6,492.6,594.1,495.1,601.1,500.1z"/>
		<path class="st5" d="M601.1,500.1c0,0-8.4,5.7-20.1,7c-2.5-1.9-4-4.5-4-7.4c0-3.2,1.9-6.1,4.8-8
			C587.6,492.6,594.1,495.1,601.1,500.1z"/>
		<path class="st6" d="M601.1,500.1c0,0-8.4,5.7-20.1,7c-1.3,0.2-2.6,0.2-4,0.3c-7.4,0.2-15.7-1.6-24.1-7.3c0,0,9.5-9.1,24.1-8.8
			c1.5,0,3.1,0.2,4.8,0.4C587.6,492.6,594.1,495.1,601.1,500.1z"/>
	</g>
	<polygon class="st7" points="538.7,516.3 543.8,507.5 533.5,507.5 	"/>
	<polyline points="473.4,482.8 470.7,443.3 506.2,470.5 	"/>
	<polygon points="569,471.9 599.9,443.3 601.1,482.8 	"/>
	<path class="st5" d="M537.8,599.3c0,0,1,55.8,4.9,65.2c3.9,9.4-10.3,10.5-17.5,5.1c-7.2-5.3-3.4-68.8-3.4-68.8"/>
	<path class="st5" d="M550.9,599.3c0,0-1,55.8-4.9,65.2c-3.9,9.4,10.3,10.5,17.5,5.1c7.2-5.3,3.4-68.8,3.4-68.8"/>
	<polygon class="st7" points="593.3,458.3 575.7,473.2 597.4,481 	"/>
	<polygon class="st7" points="478.5,457.2 478.5,480.3 498.4,468.7 	"/>
	<path class="st8" d="M417.3,576.9c-26.7-5.6,7.1,8.3-22.8,3.3"/>
	<path class="st8" d="M405.9,585c-26.7-5.6,7.1,8.3-22.8,3.3"/>
	<path class="st2" d="M429.4,823.8"/>
	<path class="st1" d="M821.7,464.8c-1.4-0.7-3.6-1.5-6.3-1.8c-1.5-0.2-4.2-0.3-5.1,0.1c-5,2.2,14.5,34.9,12,68
		c0,0-2.2,30.1-36.6,79.3c-1.5,2.2-3.1,4.3-3.1,4.3c-1.3,1.7-2.4,3.1-3.2,4.1l0,0c0,0-14.5,21.8-37.8,29.5c-4,1.3-9.1,5.4-8.6,6.6
		c0.7,1.7,14.8-1.5,25.6-6.1c24.3-10.1,38.4-29,48.3-42.7c6.5-8.9,15-22.5,22-40.7c3.7-11.2,8.4-30.9,5.9-55.3
		C832.8,490.1,826.6,474.5,821.7,464.8z"/>
	<path class="st1" d="M723.8,533.3c-0.8,4.2-1.4,10.5,1.1,17c3.4,8.6,10,11.5,19.3,21c1.8,1.9,9.2,10,14.6,19c17.8,29.5,6,56,0,62.2
		s-6.7,8.3-17.8,10.9c-11,2.6-83.7,0-83.7,0s-6.2-2.1-8.7-12.4c-7-27.8,6.5-56.1,8.7-59.6c5.4-8.5,13.5-17.5,15.6-19.8
		c10.1-11.1,15.4-14.3,17.2-22.5c0.7-3.2,0.1-3.7-1-17.5c-1.1-14.2-1.6-21.3,0.1-22.6C692.5,506.8,701,510.7,723.8,533.3z"/>
	<path class="st1" d="M800.8,501.8c-10.7-9.7-26.3-20.9-47.1-27.8c-66-22-126.3,18.5-135.3,24.8c3.4,3,8.4,7,14.8,11.2
		c35.9,23.6,73.2,23.4,81.5,23.2C760.1,532.2,791,509.6,800.8,501.8z"/>
	<g>
		<path class="st9" d="M747.9,499.7c0,2.9-1.5,5.6-4,7.4c-11.8-1.3-20.1-7-20.1-7c6.9-5,13.5-7.5,19.3-8.4
			C746.1,493.6,747.9,496.5,747.9,499.7z"/>
		<path class="st10" d="M772,500.1c-8.4,5.7-16.7,7.5-24.1,7.3c-1.4,0-2.7-0.1-4-0.3c-11.8-1.3-20.1-7-20.1-7
			c6.9-5,13.5-7.5,19.3-8.4c1.6-0.3,3.2-0.4,4.8-0.4C762.5,491.1,772,500.1,772,500.1z"/>
	</g>
	<polygon class="st7" points="708.7,516.3 703.6,507.5 713.8,507.5 	"/>
	<polyline class="st1" points="774,482.8 776.7,443.3 741.2,470.5 	"/>
	<polygon class="st1" points="678.4,471.9 647.5,443.3 646.3,482.8 	"/>
	<path class="st11" d="M709.6,599.3c0,0-1,55.8-4.9,65.2c-3.9,9.4,10.3,10.5,17.5,5.1c7.2-5.3,3.4-68.8,3.4-68.8"/>
	<path class="st11" d="M696.4,599.3c0,0,1,55.8,4.9,65.2c3.9,9.4-10.3,10.5-17.5,5.1c-7.2-5.3-3.4-68.8-3.4-68.8"/>
	<polygon class="st7" points="653.6,459 672.8,471.7 652.2,482 	"/>
	<polygon class="st7" points="766.7,459.6 769.1,482.5 748,473.1 	"/>
	<g>
		<path class="st4" d="M520.8,500.1c0,0-8.4,5.7-20.1,7c-1.3,0.2-2.6,0.2-4,0.3c-7.4,0.2-15.7-1.6-24.1-7.3c0,0,9.5-9.1,24.1-8.8
			c1.5,0,3.1,0.2,4.8,0.4C507.3,492.6,513.8,495.1,520.8,500.1z"/>
		<path class="st5" d="M520.8,500.1c0,0-8.4,5.7-20.1,7c-2.5-1.9-4-4.5-4-7.4c0-3.2,1.9-6.1,4.8-8
			C507.3,492.6,513.8,495.1,520.8,500.1z"/>
		<path class="st6" d="M520.8,500.1c0,0-8.4,5.7-20.1,7c-1.3,0.2-2.6,0.2-4,0.3c-7.4,0.2-15.7-1.6-24.1-7.3c0,0,9.5-9.1,24.1-8.8
			c1.5,0,3.1,0.2,4.8,0.4C507.3,492.6,513.8,495.1,520.8,500.1z"/>
	</g>
	<g>
		<path class="st9" d="M666.3,499.8c0,2.9-1.5,5.6-4,7.4c-11.8-1.3-20.1-7-20.1-7c6.9-5,13.5-7.5,19.3-8.4
			C664.4,493.7,666.3,496.6,666.3,499.8z"/>
		<path class="st10" d="M690.4,500.2c-8.4,5.7-16.7,7.5-24.1,7.3c-1.4,0-2.7-0.1-4-0.3c-11.8-1.3-20.1-7-20.1-7
			c6.9-5,13.5-7.5,19.3-8.4c1.6-0.3,3.2-0.4,4.8-0.4C680.9,491.1,690.4,500.2,690.4,500.2z"/>
	</g>
	<path class="st8" d="M375,608.5c-26.7-5.6,7.1,8.3-22.8,3.3"/>
	<path class="st8" d="M361.2,621.5c-26.7-5.6,7.1,8.3-22.8,3.3"/>
	<path class="st12" d="M570.1,426.2c-10.9-4.3-16.9-5.5-18-3.7c-1.6,2.5,6.6,11,24.4,25.5c8.5-21.4,11.4-32.9,8.6-34.4
		C583.1,412.5,578.1,416.7,570.1,426.2z"/>
	<path class="st13" d="M600.4,425.2"/>
	<path class="st12" d="M620.3,429.3c-3.8-11.1-6.7-16.4-8.8-16.1c-2.9,0.4-4.2,12.2-3.7,35.2c21.8-7.4,32.4-12.6,31.8-15.7
		C639.2,430.4,632.8,429.3,620.3,429.3z"/>
	<path class="st12" d="M798,440.7c-6.8-9.6-11.1-13.9-13-13c-2.7,1.2-0.6,12.8,6.4,34.8c18.9-13.2,27.6-21.2,26.2-24
		C816.5,436.5,810,437.2,798,440.7z"/>
</g>
<g id="Layer_3">
	<circle class="st1" cx="689.1" cy="373.8" r="47.8"/>
	<ellipse class="st1" cx="768.3" cy="359.9" rx="79.3" ry="61.9"/>
	<ellipse class="st1" cx="856.9" cy="373.8" rx="63.2" ry="49.8"/>
	<path class="st14" d="M500.6,522.2c-18.9,23.4-19,24.2-19,24.2"/>
	<path class="st14" d="M497.6,519.1c-26.3,14.5-26.8,15.2-26.8,15.2"/>
	<path class="st14" d="M574.6,518.4c25.8,15.5,26.5,15.6,26.5,15.6"/>
	<path class="st14" d="M572,521.9c18,24.1,18.6,24.5,18.6,24.5"/>
	<path class="st15" d="M674.3,520.5c-18.9,23.4-19,24.2-19,24.2"/>
	<path class="st15" d="M671.2,517.4c-26.3,14.5-26.8,15.2-26.8,15.2"/>
	<path class="st15" d="M748.2,516.7c25.8,15.5,26.5,15.6,26.5,15.6"/>
	<path class="st15" d="M745.6,520.1c18,24.1,18.6,24.5,18.6,24.5"/>
</g>
</svg>
