<?xml version="1.0" encoding="utf-8"?>
<!-- Generator: Adobe Illustrator 25.2.1, SVG Export Plug-In . SVG Version: 6.00 Build 0)  -->
<svg version="1.1" id="Layer_1" xmlns="http://www.w3.org/2000/svg" xmlns:xlink="http://www.w3.org/1999/xlink" x="0px" y="0px"
	 viewBox="0 0 160 32" style="enable-background:new 0 0 160 32;" xml:space="preserve">
<style type="text/css">
	.st0{fill:#FFF690;stroke:#FBB03B;stroke-width:2;stroke-miterlimit:10;}
	.st1{fill:none;stroke:#FBB03B;stroke-width:2;stroke-miterlimit:10;}
</style>
<polygon class="st0" points="23.1,11.7 32.8,12.9 25.8,19.9 27.5,29.5 18.8,25 10.2,29.7 11.9,20.1 4.9,13.3 14.5,11.8 18.8,2.9 "/>
<polygon class="st0" points="53.8,11.7 63.5,12.9 56.5,19.9 58.1,29.5 49.5,25 40.9,29.7 42.5,20.1 35.6,13.3 45.2,11.8 49.5,2.9 
	"/>
<polygon class="st0" points="84.1,11 93.8,12.2 86.8,19.2 88.5,28.8 79.8,24.4 71.2,29.1 72.9,19.4 65.9,12.7 75.5,11.1 79.8,2.3 
	"/>
<polygon class="st0" points="114.8,11 124.4,12.2 117.5,19.2 119.1,28.8 110.5,24.4 101.9,29.1 103.5,19.4 96.5,12.7 106.2,11.1 
	110.5,2.3 "/>
<polygon class="st1" points="145.5,11 155.1,12.2 148.1,19.2 149.8,28.8 141.2,24.4 132.5,29.1 134.2,19.4 127.2,12.7 136.9,11.1 
	141.2,2.3 "/>
</svg>
